<svg width="36" height="36" viewBox="0 0 36 36" fill="none" xmlns="http://www.w3.org/2000/svg">
<rect width="36" height="36" rx="18" fill="#959DA7"/>
<g clip-path="url(#clip0_902_32)">
<path d="M15.5721 21.2747C15.5721 22.2161 15.0812 23.7566 13.919 23.7566C12.7569 23.7566 12.2659 22.2161 12.2659 21.2747C12.2659 20.3333 12.7569 18.7928 13.919 18.7928C15.0812 18.7928 15.5721 20.3333 15.5721 21.2747ZM28.8105 19C28.8105 20.4369 28.6664 21.9594 28.0223 23.2792C26.3151 26.7295 21.6215 26.6484 18.2613 26.6484C14.8469 26.6484 9.87407 26.7701 8.09934 23.2792C7.4417 21.9729 7.18945 20.4369 7.18945 19C7.18945 17.1126 7.81556 15.3289 9.05878 13.883C8.82455 13.1713 8.71194 12.4236 8.71194 11.6848C8.71194 10.7164 8.93265 10.2299 9.36958 9.35156C11.4101 9.35156 12.7163 9.75696 14.2704 10.9731C15.5766 10.6623 16.9189 10.5227 18.2658 10.5227C19.4819 10.5227 20.7071 10.6533 21.8873 10.9371C23.4188 9.73444 24.7251 9.35156 26.743 9.35156C27.1845 10.2299 27.4007 10.7164 27.4007 11.6848C27.4007 12.4236 27.2836 13.1578 27.0538 13.856C28.2925 15.3154 28.8105 17.1126 28.8105 19ZM25.9142 21.2747C25.9142 19.2973 24.7115 17.5541 22.6035 17.5541C21.7522 17.5541 20.9369 17.7072 20.081 17.8243C19.4099 17.9279 18.7387 17.9685 18.0495 17.9685C17.3649 17.9685 16.6937 17.9279 16.0181 17.8243C15.1757 17.7072 14.3514 17.5541 13.4956 17.5541C11.3875 17.5541 10.1849 19.2973 10.1849 21.2747C10.1849 25.2296 13.8064 25.8376 16.9595 25.8376H19.1306C22.2972 25.8376 25.9142 25.2341 25.9142 21.2747ZM22.1936 18.7928C21.0315 18.7928 20.5405 20.3333 20.5405 21.2747C20.5405 22.2161 21.0315 23.7566 22.1936 23.7566C23.3557 23.7566 23.8467 22.2161 23.8467 21.2747C23.8467 20.3333 23.3557 18.7928 22.1936 18.7928Z" fill="white"/>
</g>
<defs>
<clipPath id="clip0_902_32">
<rect width="21.6211" height="23.0625" fill="white" transform="translate(7.18945 6.46875)"/>
</clipPath>
</defs>
</svg>
