<svg width="36" height="36" viewBox="0 0 36 36" fill="none" xmlns="http://www.w3.org/2000/svg">
<rect width="36" height="36" rx="18" fill="#959DA7"/>
<path fill-rule="evenodd" clip-rule="evenodd" d="M7.44824 17.8719C7.44824 13.2578 12.1923 9.51721 18.0444 9.51721C23.8966 9.51721 28.6407 13.2578 28.6407 17.8719C28.6407 22.4862 23.8966 26.2266 18.0444 26.2266C17.4022 26.2266 16.7732 26.1817 16.1624 26.0952C15.551 26.5261 12.0185 29.0074 11.6851 29.054C11.6851 29.054 11.5484 29.1072 11.4321 29.0387C11.3159 28.9702 11.3369 28.7907 11.3369 28.7907C11.372 28.5518 12.2527 25.5105 12.415 24.9507C9.43157 23.4726 7.44824 20.8551 7.44824 17.8719ZM11.5747 20.2046C11.5747 20.5266 11.8488 20.7884 12.186 20.7884C12.5231 20.7884 12.7973 20.5266 12.7973 20.2046V16.5729H13.7512C14.0819 16.5729 14.3511 16.3043 14.3511 15.9743C14.3511 15.6443 14.082 15.3757 13.7512 15.3757H10.6208C10.2901 15.3757 10.0209 15.6443 10.0209 15.9743C10.0209 16.3043 10.29 16.5729 10.6208 16.5729H11.5747V20.2046ZM17.0377 20.5105C17.0965 20.6769 17.2915 20.7805 17.5464 20.7805C17.6805 20.7806 17.813 20.7518 17.935 20.6962C18.1035 20.6187 18.2655 20.4048 18.0795 19.8269L16.6178 15.9798C16.5146 15.6864 16.2017 15.3848 15.8024 15.3758C15.4043 15.3849 15.0914 15.6864 14.9884 15.9792L13.5261 19.828C13.3404 20.4046 13.5024 20.6184 13.671 20.6961C13.7929 20.7518 13.9255 20.7806 14.0596 20.7805C14.3145 20.7805 14.5094 20.677 14.568 20.5109L14.8709 19.7179L16.735 19.718L17.0377 20.5105ZM15.8029 16.9005L16.4135 18.6351H15.1923L15.8029 16.9005ZM18.4775 20.1389C18.4775 20.4478 18.7402 20.6993 19.0633 20.6993H21.0246C21.3477 20.6993 21.6105 20.4478 21.6105 20.1389C21.6105 19.83 21.3477 19.5785 21.0246 19.5785H19.7256V15.987C19.7256 15.6499 19.4456 15.3757 19.1015 15.3757C18.7575 15.3757 18.4775 15.6499 18.4775 15.987V20.1389ZM21.8483 20.1691C21.8483 20.5063 22.1225 20.7805 22.4596 20.7805C22.6217 20.7802 22.7772 20.7157 22.8918 20.6011C23.0065 20.4864 23.0709 20.331 23.0711 20.1688V18.835L23.2833 18.6229L24.7169 20.5225C24.7737 20.5983 24.8474 20.6598 24.9322 20.702C25.017 20.7442 25.1105 20.7659 25.2052 20.7655C25.338 20.7658 25.4672 20.7225 25.573 20.6421C25.6372 20.5939 25.6912 20.5335 25.732 20.4643C25.7727 20.3951 25.7992 20.3185 25.8101 20.2389C25.8215 20.1594 25.817 20.0785 25.7969 20.0007C25.7767 19.923 25.7414 19.85 25.6928 19.786L24.188 17.7925L25.5811 16.3996C25.6769 16.3038 25.7249 16.1716 25.716 16.0275C25.7072 15.8845 25.6434 15.7469 25.5363 15.6399C25.4214 15.5252 25.2682 15.4593 25.1156 15.4593C24.9848 15.4593 24.8642 15.5076 24.7765 15.5954L23.0709 17.3009V15.987C23.0709 15.6499 22.7967 15.3757 22.4596 15.3757C22.1225 15.3757 21.8483 15.6499 21.8483 15.987V20.1691Z" fill="white"/>
</svg>
