<svg width="66" height="20" viewBox="0 0 66 20" fill="none" xmlns="http://www.w3.org/2000/svg">
<path d="M24.4609 20H8.7425C8.12986 20 7.58543 19.6094 7.38919 19.029L7.32126 18.8281C7.12503 18.2478 6.5806 17.8571 5.96796 17.8571H1.80036C0.880216 17.8571 0.200051 17 0.409178 16.1039L3.90992 1.10389C4.06081 0.457368 4.6372 0 5.3011 0H21.6496C22.3493 0 22.9461 0.506858 23.0593 1.19738L25.8707 18.3402C26.0133 19.2099 25.3422 20 24.4609 20Z" fill="#3182F6"/>
<path fill-rule="evenodd" clip-rule="evenodd" d="M7.34103 18.8489C7.4735 19.5179 8.06039 20 8.74239 20H28.404C29.3044 20 29.9803 19.1772 29.8054 18.2939L26.4108 1.15107C26.2783 0.482069 25.6914 0 25.0094 0H5.34776C4.44738 0 3.7715 0.822834 3.9464 1.70607L7.13763 17.8218L7.34103 18.8489Z" fill="#90C2FF"/>
<rect x="8.93398" y="5.71423" width="13.5714" height="1.42857" rx="0.714286" fill="white"/>
<rect x="9.64827" y="11.4286" width="13.5714" height="1.42857" rx="0.714286" fill="white"/>
<rect x="10.7143" y="8.57141" width="14.2857" height="1.42857" rx="0.714286" fill="white"/>
<path d="M35.4369 13.575C35.5608 13.6616 35.8208 13.7855 36.2169 13.9464C36.6255 14.095 37.1022 14.1693 37.6469 14.1693C38.0803 14.1693 38.4331 14.095 38.7055 13.9464C38.9903 13.7978 39.2008 13.575 39.3369 13.2778C39.4855 12.9683 39.5846 12.5721 39.6341 12.0893C39.6836 11.594 39.7084 10.9997 39.7084 10.3064V3.49069H42.7541V10.195C42.7541 11.1855 42.6984 12.0893 42.5869 12.9064C42.4755 13.7235 42.2465 14.4355 41.8998 15.0421C41.5655 15.6364 41.0579 16.0945 40.3769 16.4164C39.696 16.7259 38.786 16.8807 37.6469 16.8807C37.065 16.8807 36.5388 16.8126 36.0684 16.6764C35.5979 16.5402 35.1646 16.3359 34.7684 16.0635L35.4369 13.575Z" fill="#191F28"/>
<path d="M44.0982 13.7607C44.0982 13.1169 44.2777 12.5535 44.6368 12.0707C44.9958 11.5878 45.4911 11.2102 46.1225 10.9378C46.7539 10.6531 47.4782 10.5107 48.2953 10.5107C48.6915 10.5107 49.0815 10.5478 49.4653 10.6221C49.8491 10.684 50.1834 10.7769 50.4682 10.9007V10.4735C50.4682 9.94117 50.3072 9.5326 49.9853 9.24783C49.6634 8.96307 49.1744 8.82069 48.5182 8.82069C47.9734 8.82069 47.4596 8.91355 46.9768 9.09926C46.5063 9.28498 46.0049 9.55117 45.4725 9.89783L44.5811 8.00355C45.2249 7.5826 45.8934 7.26688 46.5868 7.05641C47.2925 6.84593 48.0353 6.74069 48.8153 6.74069C50.2763 6.74069 51.4091 7.09355 52.2139 7.79926C53.0311 8.4926 53.4396 9.50164 53.4396 10.8264V13.3707C53.4396 13.6678 53.483 13.8783 53.5696 14.0021C53.6687 14.1135 53.8358 14.1816 54.0711 14.2064V16.6764C53.8234 16.7259 53.5882 16.7631 53.3653 16.7878C53.1549 16.8126 52.9691 16.825 52.8082 16.825C52.2511 16.825 51.8239 16.7135 51.5268 16.4907C51.242 16.2678 51.0625 15.9645 50.9882 15.5807L50.9325 15.1535C50.4991 15.7107 49.9791 16.1378 49.3725 16.435C48.7782 16.7197 48.153 16.8621 47.4968 16.8621C46.853 16.8621 46.2711 16.7259 45.7511 16.4535C45.2434 16.1812 44.8411 15.8097 44.5439 15.3393C44.2468 14.8688 44.0982 14.3426 44.0982 13.7607ZM50.0039 14.1321C50.1401 14.0207 50.2515 13.8969 50.3382 13.7607C50.4249 13.6245 50.4682 13.4945 50.4682 13.3707V12.4978C50.2206 12.3988 49.942 12.3245 49.6325 12.275C49.3353 12.2131 49.0568 12.1821 48.7968 12.1821C48.252 12.1821 47.8001 12.3059 47.4411 12.5535C47.082 12.7888 46.9025 13.1045 46.9025 13.5007C46.9025 13.7235 46.9644 13.9278 47.0882 14.1135C47.212 14.2993 47.3791 14.4478 47.5896 14.5593C47.8125 14.6707 48.0725 14.7264 48.3696 14.7264C48.6668 14.7264 48.9639 14.6707 49.2611 14.5593C49.5582 14.4478 49.8058 14.3055 50.0039 14.1321Z" fill="#191F28"/>
<path d="M61.777 9.47069C61.0589 9.47069 60.4089 9.58831 59.827 9.82355C59.2451 10.0464 58.8242 10.3807 58.5642 10.8264V16.6764H55.5927V6.92641H58.3227V8.89498C58.657 8.23879 59.0904 7.72498 59.6227 7.35355C60.1551 6.98212 60.7123 6.79022 61.2942 6.77783C61.4304 6.77783 61.5294 6.77783 61.5913 6.77783C61.6656 6.77783 61.7275 6.78402 61.777 6.79641V9.47069Z" fill="#191F28"/>
<path d="M63.0286 16.6764V6.92641H66V16.6764H63.0286ZM63.0286 5.81212V3.11926H66V5.81212H63.0286Z" fill="#191F28"/>
</svg>
