<svg width="256" height="256" viewBox="0 0 256 256" fill="none" xmlns="http://www.w3.org/2000/svg">
<path d="M209.901 213.811H75.02C69.763 213.811 65.0912 210.459 63.4073 205.479L62.8243 203.755C61.1404 198.775 56.4686 195.423 51.2115 195.423H15.4491C7.5532 195.423 1.71665 188.067 3.51119 180.378L33.5513 51.6618C34.8461 46.1139 39.7922 42.1892 45.4892 42.1892H185.777C191.781 42.1892 196.902 46.5386 197.874 52.464L221.998 199.568C223.222 207.031 217.463 213.811 209.901 213.811Z" fill="#3182F6"/>
<path fill-rule="evenodd" clip-rule="evenodd" d="M62.994 203.933C64.1308 209.674 69.1669 213.811 75.0192 213.811H243.737C251.463 213.811 257.263 206.75 255.762 199.171L226.633 52.0667C225.496 46.3259 220.46 42.1892 214.608 42.1892H45.8896C38.1633 42.1892 32.3636 49.25 33.8644 56.8291L61.2486 195.119L62.994 203.933Z" fill="#90C2FF"/>
<rect x="76.6632" y="91.224" width="116.457" height="12.2587" rx="6.12934" fill="white"/>
<rect x="82.7925" y="140.259" width="116.457" height="12.2587" rx="6.12934" fill="white"/>
<rect x="91.9401" y="115.741" width="122.587" height="12.2587" rx="6.12934" fill="white"/>
</svg>
